<svg width="639" height="791" viewBox="0 0 639 791" fill="none" xmlns="http://www.w3.org/2000/svg">
<path d="M461.25 137.205C469.396 137.205 476.093 130.577 475.086 122.493C473.47 109.525 469.723 96.7963 463.935 84.6991C455.97 68.0526 444.294 52.9272 429.576 40.1865C414.858 27.4458 397.385 17.3393 378.155 10.4441C358.925 3.54892 338.315 -7.87595e-07 317.5 0C296.685 7.87595e-07 276.075 3.54892 256.845 10.4441C237.615 17.3394 220.142 27.4458 205.424 40.1865C190.705 52.9272 179.03 68.0526 171.065 84.6992C165.277 96.7963 161.53 109.525 159.914 122.493C158.907 130.577 165.604 137.205 173.75 137.205L317.5 137.205H461.25Z" fill="#EABC03"/>
<rect y="156" width="639" height="635" rx="39.6875" fill="#EABC03"/>
</svg>
