<svg width="90" height="135" viewBox="0 0 90 135" fill="none" xmlns="http://www.w3.org/2000/svg">
<g clip-path="url(#clip0_1_8)">
<path d="M5.61987 21.5881H84.4153C87.501 21.5881 90.0059 24.0869 90.0059 27.165V107.835C90.0059 110.913 87.501 113.412 84.4153 113.412H5.59054C2.50489 113.412 0 110.913 0 107.835V27.1943C0 24.1044 2.51662 21.5881 5.61987 21.5881Z" fill="#EABC03"/>
<path d="M13.3457 61.5573C12.0493 60.1528 11.3981 58.1456 11.3981 55.5239V30.8342H16.4959V55.8925C16.4959 57.0044 16.7188 57.8061 17.1705 58.2977C17.6163 58.7893 18.2616 59.0351 19.0946 59.0351C19.9277 59.0351 20.5671 58.7893 21.0188 58.2977C21.4646 57.8061 21.6934 57.0044 21.6934 55.8925V30.8342H26.6034V55.5239C26.6034 58.1456 25.9523 60.1528 24.6558 61.5573C23.3594 62.9618 21.4705 63.6582 19.0008 63.6582C16.5311 63.6582 14.6422 62.9559 13.3457 61.5573Z" fill="#E5026D"/>
<path d="M34.2002 35.4573H28.8737V30.8342C36.3062 30.8342 43.7329 30.8342 51.1654 30.8342V35.4573C47.2116 35.4573 43.2577 35.4573 39.3039 35.4573V63.1958H34.2061V35.4573H34.2002Z" fill="#E5026D"/>
<path d="M14.6011 76.4272H9.27454V71.8042C20.3148 71.8042 31.361 71.8042 42.4012 71.8042V76.4272C34.8338 76.4272 27.2663 76.4272 19.7047 76.4272V104.166H14.607V76.4272H14.6011Z" fill="#E5026D"/>
<path d="M48.5197 62.0372C47.1881 60.9545 46.5252 59.4213 46.5252 57.4492V44.4519C46.5252 42.4739 47.1881 40.9465 48.5197 39.858C49.8455 38.7754 51.7638 38.2312 54.2687 38.2312C56.7736 38.2312 58.686 38.7754 60.0176 39.858C61.3434 40.9407 62.0121 42.4739 62.0121 44.4519V57.4492C62.0121 59.4272 61.3492 60.9604 60.0176 62.0372C58.686 63.1198 56.7736 63.664 54.2687 63.664C51.7638 63.664 49.8514 63.1198 48.5197 62.0372ZM56.9085 57.695V44.2061C56.9085 42.5792 56.0285 41.7716 54.2687 41.7716C52.5088 41.7716 51.6289 42.5851 51.6289 44.2061V57.695C51.6289 59.3218 52.5088 60.1294 54.2687 60.1294C56.0285 60.1294 56.9085 59.316 56.9085 57.695Z" fill="#E5026D"/>
<path d="M67.0336 61.5807C65.7489 60.1938 65.1095 58.2392 65.1095 55.7111V38.3307C65.1095 35.8026 65.7489 33.848 67.0336 32.4611C68.3183 31.0742 70.1779 30.3836 72.6183 30.3836C75.0587 30.3836 76.9183 31.08 78.203 32.4611C79.4877 33.848 80.1271 35.8084 80.1271 38.3307V41.7541H75.305V38.0088C75.305 36.0074 74.4544 35.0067 72.7591 35.0067C71.0637 35.0067 70.2073 36.0074 70.2073 38.0088V56.0857C70.2073 58.0578 71.0579 59.0468 72.7591 59.0468C74.4603 59.0468 75.305 58.0578 75.305 56.0857V51.1407H80.1271V55.717C80.1271 58.245 79.4877 60.1996 78.203 61.5865C76.9183 62.9735 75.0587 63.6699 72.6183 63.6699C70.1779 63.6699 68.3183 62.9735 67.0336 61.5865V61.5807Z" fill="#E5026D"/>
<path d="M28.9206 102.99C27.589 101.901 26.9261 100.362 26.9261 98.3664V85.2872C26.9261 83.2975 27.589 81.7584 28.9206 80.6641C30.2464 79.5756 32.1646 79.0314 34.6695 79.0314C37.1744 79.0314 39.0868 79.5756 40.4185 80.6641C41.7442 81.7526 42.413 83.2917 42.413 85.2872V98.3664C42.413 100.356 41.7501 101.895 40.4185 102.99C39.0868 104.078 37.1744 104.622 34.6695 104.622C32.1646 104.622 30.2522 104.078 28.9206 102.99ZM37.3093 98.6181V85.0414C37.3093 83.4087 36.4294 82.5894 34.6695 82.5894C32.9097 82.5894 32.0297 83.4087 32.0297 85.0414V98.6181C32.0297 100.251 32.9097 101.07 34.6695 101.07C36.4294 101.07 37.3093 100.251 37.3093 98.6181Z" fill="#E5026D"/>
<path d="M45.833 71.7983H52.2272L57.1842 91.1684H57.2781V71.7983H61.8185V104.16H56.58L50.4615 80.5353H50.3676V104.16H45.8271V71.7983H45.833Z" fill="#E5026D"/>
<path d="M67.2448 102.498C65.9132 101.082 65.2503 99.0745 65.2503 96.4879V79.4761C65.2503 76.8895 65.9132 74.8823 67.2448 73.4661C68.5706 72.0499 70.4889 71.3418 72.9937 71.3418C75.4986 71.3418 77.411 72.0499 78.7427 73.4661C80.0684 74.8823 80.7372 76.8895 80.7372 79.4761V96.4879C80.7372 99.0745 80.0743 101.082 78.7427 102.498C77.411 103.914 75.4986 104.622 72.9937 104.622C70.4889 104.622 68.5765 103.914 67.2448 102.498ZM75.6336 96.8098V79.1484C75.6336 77.0241 74.7536 75.9591 72.9937 75.9591C71.2339 75.9591 70.3539 77.0241 70.3539 79.1484V96.8098C70.3539 98.9341 71.2339 99.9991 72.9937 99.9991C74.7536 99.9991 75.6336 98.9341 75.6336 96.8098Z" fill="#E5026D"/>
<path d="M54.2687 30.8342H62.0063V35.4573H54.2687V30.8342Z" fill="#E5026D"/>
<path d="M24.738 18.4923H67.151C68.682 18.4923 69.691 16.9123 69.0634 15.5137C64.6813 5.8169 55.2014 -0.374529 45 0.0175552C35.4439 0.386232 26.8733 6.47817 22.8021 15.578C22.1862 16.9474 23.2303 18.4923 24.738 18.4923Z" fill="#EABC03"/>
<path d="M24.7497 116.508H67.1627C68.6938 116.508 69.7028 118.088 69.0751 119.486C64.693 129.183 55.2131 135.38 45.0117 134.982C35.4556 134.614 26.885 128.522 22.8138 119.422C22.1979 118.053 23.2421 116.508 24.7497 116.508Z" fill="#EABC03"/>
</g>
<defs>
<clipPath id="clip0_1_8">
<rect width="90" height="135" fill="white"/>
</clipPath>
</defs>
</svg>
