<svg width="293" height="353" viewBox="0 0 293 353" fill="none" xmlns="http://www.w3.org/2000/svg">
<rect x="7" y="68.6604" width="286" height="284.21" rx="13.8748" fill="#FAF2DD"/>
<path d="M215.265 58.8138C218.4 58.8138 220.981 56.2602 220.533 53.1581C219.81 48.1636 218.133 43.2616 215.54 38.6028C211.975 32.1952 206.75 26.373 200.163 21.4688C193.575 16.5646 185.755 12.6743 177.148 10.0202C168.541 7.36607 159.316 6 150 6C140.684 6 131.459 7.36607 122.852 10.0202C114.245 12.6744 106.425 16.5646 99.8374 21.4688C93.25 26.373 88.0246 32.1952 84.4595 38.6028C81.8674 43.2616 80.1899 48.1637 79.4674 53.1581C79.0186 56.2602 81.6003 58.8138 84.7346 58.8138L150 58.8138H215.265Z" fill="#FAF2DD"/>
<rect y="62.6604" width="286" height="284.21" rx="13.8748" fill="#E5026D"/>
<path d="M208.265 52.8138C211.4 52.8138 213.981 50.2602 213.533 47.1581C212.81 42.1636 211.133 37.2616 208.54 32.6028C204.975 26.1952 199.75 20.373 193.163 15.4688C186.575 10.5646 178.755 6.67435 170.148 4.02021C161.541 1.36607 152.316 -3.03165e-07 143 0C133.684 3.03165e-07 124.459 1.36607 115.852 4.02021C107.245 6.67435 99.4249 10.5646 92.8374 15.4688C86.25 20.373 81.0246 26.1952 77.4595 32.6028C74.8674 37.2616 73.1899 42.1637 72.4674 47.1581C72.0186 50.2602 74.6003 52.8138 77.7346 52.8138L143 52.8138H208.265Z" fill="#E5026D"/>
</svg>
